<?xml version="1.0" encoding="UTF-8" standalone="no"?>
<!-- Created with Inkscape (http://www.inkscape.org/) -->

<svg
   xmlns:dc="http://purl.org/dc/elements/1.1/"
   xmlns:cc="http://creativecommons.org/ns#"
   xmlns:rdf="http://www.w3.org/1999/02/22-rdf-syntax-ns#"
   xmlns:svg="http://www.w3.org/2000/svg"
   xmlns="http://www.w3.org/2000/svg"
   xmlns:sodipodi="http://sodipodi.sourceforge.net/DTD/sodipodi-0.dtd"
   xmlns:inkscape="http://www.inkscape.org/namespaces/inkscape"
   width="250"
   height="36"
   viewBox="0 0 66.145831 9.5250003"
   version="1.1"
   id="svg3719"
   inkscape:version="0.92.4 (f8dce91, 2019-08-02)"
   sodipodi:docname="logo--white.svg">
  <defs
     id="defs3713" />
  <sodipodi:namedview
     id="base"
     pagecolor="#ffffff"
     bordercolor="#666666"
     borderopacity="0.08235294"
     inkscape:pageopacity="0"
     inkscape:pageshadow="2"
     inkscape:zoom="5.6"
     inkscape:cx="125.77975"
     inkscape:cy="48.714264"
     inkscape:document-units="mm"
     inkscape:current-layer="layer1"
     showgrid="false"
     units="px"
     inkscape:window-width="1920"
     inkscape:window-height="1043"
     inkscape:window-x="0"
     inkscape:window-y="0"
     inkscape:window-maximized="1"
     inkscape:snap-page="false" />
  <metadata
     id="metadata3716">
    <rdf:RDF>
      <cc:Work
         rdf:about="">
        <dc:format>image/svg+xml</dc:format>
        <dc:type
           rdf:resource="http://purl.org/dc/dcmitype/StillImage" />
        <dc:title></dc:title>
      </cc:Work>
    </rdf:RDF>
  </metadata>
  <g
     inkscape:label="Layer 1"
     inkscape:groupmode="layer"
     id="layer1"
     transform="translate(0,-287.475)">
    <text
       xml:space="preserve"
       style="font-style:normal;font-weight:normal;font-size:10.58333302px;line-height:1.25;font-family:sans-serif;letter-spacing:0px;word-spacing:0px;fill:#ffffff;fill-opacity:1;stroke:none;stroke-width:0.26458332"
       x="12.133033"
       y="293.49429"
       id="text3723"><tspan
         sodipodi:role="line"
         id="tspan3721"
         x="12.133033"
         y="293.49429"
         style="font-size:4.23333359px;fill:#ffffff;stroke-width:0.26458332">Django Audio Manager</tspan></text>
    <path
       style="fill:#ffffff;stroke-width:1.08150029"
       d="m 5.8925781,5.9648438 v 2.46875 a 17.551158,2.5862802 33.04594 0 1 6.0585939,3.3105472 17.551158,2.5862803 33.045941 0 1 -0.34375,-3.2343754 17.551158,2.5862803 33.045941 0 1 13.126953,6.6582034 17.551158,2.5862803 33.045941 0 1 -2.019531,-4.763672 17.551158,2.5862803 33.045941 0 1 15.539062,8.224609 V 5.9648438 Z m 0,7.5078122 V 29.357422 H 38.253906 V 27.953125 A 17.551158,2.5862803 33.045941 0 1 37.677734,27.845703 17.551158,2.5862803 33.045941 0 1 27.005859,22.697266 17.551158,2.5862802 33.04594 0 1 27.357422,25.935547 17.551158,2.5862802 33.04594 0 1 7.3574219,14.585938 17.551158,2.5862802 33.04594 0 1 5.8925781,13.472656 Z m 29.7558599,9.601563 a 17.551158,2.5862803 33.045941 0 1 2.605468,2.496093 v -0.894531 a 17.551158,2.5862803 33.045941 0 1 -2.605468,-1.601562 z"
       id="rect3754"
       transform="matrix(0.26458333,0,0,0.26458333,0,287.475)"
       inkscape:connector-curvature="0" />
  </g>
</svg>
