<svg version="1.1" viewBox="0.0 0.0 960.0 960.0" fill="none" stroke="none" stroke-linecap="square" stroke-miterlimit="10" xmlns:xlink="http://www.w3.org/1999/xlink" xmlns="http://www.w3.org/2000/svg"><clipPath id="p.0"><path d="m0 0l960.0 0l0 960.0l-960.0 0l0 -960.0z" clip-rule="nonzero"/></clipPath><g clip-path="url(#p.0)"><path fill="#000000" fill-opacity="0.0" d="m0 0l960.0 0l0 960.0l-960.0 0z" fill-rule="evenodd"/><g filter="url(#shadowFilter-p.1)"><use xlink:href="#p.1" transform="matrix(1.0 0.0 0.0 1.0 0.0 2.0)"/></g><defs><filter id="shadowFilter-p.1" filterUnits="userSpaceOnUse"><feGaussianBlur in="SourceAlpha" stdDeviation="2.0" result="blur"/><feComponentTransfer in="blur" color-interpolation-filters="sRGB"><feFuncR type="linear" slope="0" intercept="0.0"/><feFuncG type="linear" slope="0" intercept="0.0"/><feFuncB type="linear" slope="0" intercept="0.0"/><feFuncA type="linear" slope="0.78" intercept="0"/></feComponentTransfer></filter></defs><g id="p.1"><path fill="#c7eaea" d="m48.0 480.0l0 0c0 -238.587 193.413 -432.0 432.0 -432.0l0 0c114.57355 0 224.4544 45.514153 305.47015 126.52988c81.015686 81.01572 126.52985 190.8966 126.52985 305.47012l0 0c0 238.58704 -193.41296 432.0 -432.0 432.0l0 0c-238.587 0 -432.0 -193.41296 -432.0 -432.0z" fill-rule="evenodd"/><path stroke="#353f44" stroke-width="24.0" stroke-linejoin="round" stroke-linecap="butt" d="m48.0 480.0l0 0c0 -238.587 193.413 -432.0 432.0 -432.0l0 0c114.57355 0 224.4544 45.514153 305.47015 126.52988c81.015686 81.01572 126.52985 190.8966 126.52985 305.47012l0 0c0 238.58704 -193.41296 432.0 -432.0 432.0l0 0c-238.587 0 -432.0 -193.41296 -432.0 -432.0z" fill-rule="evenodd"/></g><path fill="#353f44" d="m210.3622 327.03937l404.45673 0l0 440.74017l-404.45673 0z" fill-rule="evenodd"/><path fill="#2a3236" d="m614.8189 327.03937l134.81891 -134.8189l0 440.74017l-134.81891 134.81891z" fill-rule="evenodd"/><path fill="#5d6569" d="m210.3622 327.03937l134.8189 -134.8189l404.45673 0l-134.81891 134.8189z" fill-rule="evenodd"/><path fill="#000000" fill-opacity="0.0" d="m210.3622 327.03937l134.8189 -134.8189l404.45673 0l0 440.74017l-134.81891 134.81891l-404.45673 0zm0 0l404.45673 0l134.81891 -134.8189m-134.81891 134.8189l0 440.74017" fill-rule="evenodd"/><path stroke="#070f14" stroke-width="1.0" stroke-linejoin="round" stroke-linecap="butt" d="m210.3622 327.03937l134.8189 -134.8189l404.45673 0l0 440.74017l-134.81891 134.81891l-404.45673 0zm0 0l404.45673 0l134.81891 -134.8189m-134.81891 134.8189l0 440.74017" fill-rule="evenodd"/><path fill="#000000" fill-opacity="0.0" d="m235.35957 442.20996l361.1654 0l0 187.55908l-361.1654 0z" fill-rule="evenodd"/><path fill="#c7eaea" d="m254.64082 579.20996l0 -95.4375l32.875015 0q11.140625 0 17.0 1.359375q8.203125 1.890625 14.0 6.84375q7.546875 6.375 11.28125 16.3125q3.75 9.921875 3.75 22.6875q0 10.859375 -2.546875 19.265625q-2.53125 8.390625 -6.5 13.90625q-3.96875 5.5 -8.6875 8.65625q-4.71875 3.15625 -11.390625 4.78125q-6.671875 1.625 -15.34375 1.625l-34.437515 0zm12.64064 -11.265625l20.375 0q9.4375 0 14.796875 -1.75q5.375 -1.765625 8.578125 -4.953125q4.484375 -4.484375 6.984375 -12.0625q2.515625 -7.59375 2.515625 -18.40625q0 -14.96875 -4.921875 -23.0q-4.90625 -8.046875 -11.9375 -10.78125q-5.078125 -1.953125 -16.34375 -1.953125l-20.046875 0l0 72.90625zm82.082184 -70.5625l0 -13.609375l11.71875 0l0 13.609375l-11.71875 0zm-14.84375 108.65625l2.21875 -9.96875q3.515625 0.90625 5.53125 0.90625q3.578125 0 5.328125 -2.375q1.765625 -2.375 1.765625 -11.875l0 -72.65625l11.71875 0l0 72.921875q0 12.75 -3.3125 17.765625q-4.234375 6.515625 -14.0625 6.515625q-4.75 0 -9.1875 -1.234375zm35.558746 -26.828125l36.640625 -95.4375l13.609375 0l39.0625 95.4375l-14.390625 0l-11.125 -28.90625l-39.90625 0l-10.484375 28.90625l-13.40625 0zm27.53125 -39.1875l32.359375 0l-9.96875 -26.4375q-4.546875 -12.046875 -6.765625 -19.78125q-1.828125 9.171875 -5.140625 18.21875l-10.484375 28.0zm71.47568 39.1875l0 -95.4375l19.015625 0l22.59378 67.578125q3.1249695 9.4375 4.5468445 14.125q1.640625 -5.203125 5.078125 -15.296875l22.859375 -66.40625l16.984375 0l0 95.4375l-12.171875 0l0 -79.875l-27.734375 79.875l-11.3905945 0l-27.609406 -81.25l0 81.25l-12.171875 0z" fill-rule="nonzero"/></g></svg>